<svg version="1.1" fill="currentColor" id="Layer_1" xmlns="http://www.w3.org/2000/svg" xmlns:xlink="http://www.w3.org/1999/xlink" x="0px" y="0px" viewBox="0 0 24 24" style="enable-background:new 0 0 24 24;" xml:space="preserve">
    <g>
        <path d="M0.9,12.9c0,1,0.4,1.9,1.1,2.6c0.7,0.7,1.6,1.1,2.6,1.1h2.5c-0.5,1-0.7,1.9-0.7,2.8c0,1.1,0.2,2,0.5,2.7
        		c0.3,0.7,0.8,1.2,1.5,1.5c0.6,0.3,1.4,0.5,2.2,0.5c0.5,0,0.9-0.2,1.3-0.5c0.3-0.3,0.6-0.7,0.8-1.2c0.2-0.5,0.3-0.9,0.4-1.3
        		c0.1-0.4,0.1-0.8,0.3-1.2c0.1-0.4,0.3-0.7,0.4-0.9c0.5-0.5,1-1.1,1.5-1.8c1-1.3,1.6-2,2-2.2h4c0.5,0,0.9-0.2,1.3-0.5
        		c0.4-0.4,0.5-0.8,0.5-1.3V3.7c0-0.5-0.2-0.9-0.5-1.3c-0.4-0.4-0.8-0.5-1.3-0.5h-4.2c-0.2,0-0.9-0.2-2-0.6c-1.2-0.4-2.3-0.7-3.2-1
        		C11,0.1,10,0,9,0L7.4,0C6,0,4.9,0.4,4.1,1.1C3.3,1.9,2.9,2.9,2.9,4.3v0.1C2.3,5.1,2,5.9,2,6.9c0,0.2,0,0.4,0,0.6
        		C1.7,8.2,1.5,8.9,1.5,9.6c0,0.3,0,0.7,0.1,1C1.2,11.3,0.9,12.1,0.9,12.9z M19.4,4.6c0-0.3,0.1-0.5,0.3-0.6c0.2-0.2,0.4-0.3,0.6-0.3
        		c0.3,0,0.5,0.1,0.6,0.3c0.2,0.2,0.3,0.4,0.3,0.6c0,0.3-0.1,0.5-0.3,0.6c-0.2,0.2-0.4,0.3-0.6,0.3c-0.3,0-0.5-0.1-0.6-0.3
        		C19.5,5.1,19.4,4.9,19.4,4.6z M2.8,12.9c0-0.3,0.1-0.7,0.3-1.2c0.2-0.4,0.5-0.7,0.8-0.7c-0.1-0.2-0.3-0.4-0.4-0.7
        		c-0.1-0.3-0.1-0.6-0.1-0.8c0-0.7,0.3-1.2,0.8-1.7c-0.2-0.3-0.3-0.6-0.3-1c0-0.4,0.1-0.7,0.3-1.1c0.2-0.4,0.4-0.6,0.7-0.8
        		c0-0.3-0.1-0.6-0.1-0.8c0-0.8,0.2-1.4,0.7-1.8c0.5-0.4,1.1-0.6,2-0.6h1.8c1.3,0,2.9,0.4,4.9,1.1c0,0,0.2,0.1,0.4,0.2
        		c0.2,0.1,0.4,0.1,0.5,0.2c0.1,0,0.3,0.1,0.5,0.2c0.2,0.1,0.4,0.1,0.5,0.2c0.1,0,0.3,0.1,0.5,0.1c0.2,0,0.3,0,0.5,0h0.5v9.2h-0.5
        		c-0.2,0-0.3,0-0.5,0.1c-0.2,0.1-0.4,0.2-0.6,0.4c-0.2,0.2-0.4,0.3-0.6,0.5c-0.2,0.2-0.4,0.4-0.6,0.6c-0.2,0.3-0.4,0.5-0.5,0.6
        		c-0.1,0.2-0.3,0.4-0.5,0.6c-0.2,0.2-0.3,0.4-0.3,0.4c-0.5,0.7-0.9,1.1-1.1,1.3c-0.4,0.4-0.7,0.9-0.9,1.6c-0.2,0.6-0.3,1.2-0.4,1.8
        		c-0.1,0.6-0.3,1-0.5,1.2c-0.9,0-1.5-0.2-1.8-0.7c-0.3-0.5-0.5-1.1-0.5-2.1c0-0.6,0.2-1.3,0.7-2.3c0.5-1,0.7-1.7,0.7-2.3H4.6
        		c-0.5,0-0.9-0.2-1.3-0.6C3,13.8,2.8,13.4,2.8,12.9z"/>
    </g>
</svg>
